<svg version="1.1" id="Camada_1" xmlns="http://www.w3.org/2000/svg" x="0" y="0" viewBox="0 0 130 60" xml:space="preserve"><style>.st1{fill:#fff}</style><path d="M110.8 60H19.2C8.6 60 0 51.2 0 40.6V19.4C0 8.7 8.7 0 19.2 0h91.7C121.4 0 130 8.8 130 19.4v21.1c0 10.8-8.6 19.5-19.2 19.5z" fill="#23db4a"/><path class="st1" d="M32.2 20.3c-.4 0-.7.3-.7.7 0 .4.3.7.7.7.4 0 .7-.3.7-.7 0-.4-.3-.7-.7-.7zM19.8 33.7c.4 0 .7-.3.7-.7 0-.4-.3-.7-.7-.7-.4 0-.7.3-.7.7-.1.4.3.7.7.7z"/><path class="st1" d="M38.1 12.8c-6.7 0-12.2 4.6-12.7 10.5C19 23.6 13 28.2 13 34.5c0 2.6 1 5.1 2.9 7.1.4 1.5-.1 3.2-1.2 4.3-.2.2-.3.5-.2.8.1.3.4.5.7.5 2.1 0 4.2-.8 5.7-2.3 1.5.5 3.4.8 5.2.8 6.7 0 12.2-4.6 12.7-10.5 1.6-.1 3.2-.4 4.5-.8 1.5 1.5 3.6 2.3 5.7 2.3.3 0 .6-.2.7-.5.1-.3.1-.6-.2-.8-1.1-1.1-1.6-2.7-1.2-4.3 1.9-2 2.9-4.5 2.9-7.1.1-6.4-6.4-11.2-13.1-11.2zM26.2 44.2c-2 0-4.3-.4-5.6-1.1-.9 1.2-2.2 2-3.7 2.4.7-1.4.9-3.1.4-4.6-1.8-1.8-2.7-4-2.7-6.4 0-5.3 5.3-9.7 11.6-9.7 6 0 11.2 4.1 11.2 9.7 0 5.3-5 9.7-11.2 9.7zm21-13.9c-.1.1-.1.2-.2.3-.4 1.5-.2 3.1.5 4.4-1.4-.4-2.8-1.2-3.7-2.4-1.2.6-3.1 1-4.9 1.1-.2-2.8-1.6-5.5-4-7.4h9.7c.4 0 .7-.3.7-.7 0-.4-.3-.7-.7-.7h-12c-1.7-.9-3.6-1.4-5.6-1.5.4-5 5.3-9 11.2-9 6.3 0 11.6 4.4 11.6 9.7 0 2.2-1 4.4-2.6 6.2z"/><path class="st1" d="M32.2 32.2h-9.4c-.4 0-.7.3-.7.7 0 .4.3.7.7.7h9.4c.4 0 .7-.3.7-.7 0-.3-.3-.7-.7-.7zM32.2 36.7H19.8c-.4 0-.7.3-.7.7s.3.7.7.7h12.4c.4 0 .7-.3.7-.7s-.3-.7-.7-.7zM44.6 20.3h-9.4c-.4 0-.7.3-.7.7 0 .4.3.7.7.7h9.4c.4 0 .7-.3.7-.7s-.3-.7-.7-.7z"/><g><path class="st1" d="M70.9 25.7l-1.2 1.5c-.9-1-2.1-1.5-3.4-1.5-2.4 0-4.3 1.9-4.3 4.3s1.9 4.3 4.3 4.3c.9 0 1.9-.3 2.7-.9.4-.3.9-.2 1.2.1l.6.7c-1.2 1.2-3 2-4.7 2-3.6 0-6.3-2.7-6.3-6.2s2.8-6.1 6.4-6.1c1.8 0 3.5.7 4.7 1.8zM84.9 36.1v-5h-6.4v5h-2V24h2v5.3h6.4V24h2v12.1h-2zM94.4 35.5c-.1.3-.5.6-.8.6h-1.5L97.5 24h2.1l5.3 12.1h-2.2l-1.2-2.7h-6.1l-1 2.1zm4-9.4l-2.3 5.4h4.6l-2.3-5.4zM113.1 25.8v10.3h-2V25.8h-3.8V24h9.7v1.8h-3.9z"/></g></svg>