<?xml version="1.0" encoding="utf-8"?>
<!-- Generator: Adobe Illustrator 22.1.0, SVG Export Plug-In . SVG Version: 6.00 Build 0)  -->
<svg version="1.1" id="Camada_1" xmlns="http://www.w3.org/2000/svg" xmlns:xlink="http://www.w3.org/1999/xlink" x="0px" y="0px"
	 viewBox="0 0 130 60" style="enable-background:new 0 0 130 60;" xml:space="preserve">
<style type="text/css">
	.st0{fill:#23DB4A;}
	.st1{fill:#FFFFFF;}
</style>
<g>
	<path class="st0" d="M110.8,60H19.2C8.6,60,0,51.2,0,40.6V19.4C0,8.7,8.7,0,19.2,0h91.7C121.4,0,130,8.8,130,19.4v21.1
		C130,51.3,121.4,60,110.8,60z"/>
	<g>
		<g>
			<path class="st1" d="M32.2,20.3c-0.4,0-0.7,0.3-0.7,0.7c0,0.4,0.3,0.7,0.7,0.7c0.4,0,0.7-0.3,0.7-0.7
				C32.9,20.6,32.6,20.3,32.2,20.3L32.2,20.3z"/>
			<path class="st1" d="M19.8,33.7c0.4,0,0.7-0.3,0.7-0.7c0-0.4-0.3-0.7-0.7-0.7c-0.4,0-0.7,0.3-0.7,0.7
				C19,33.4,19.4,33.7,19.8,33.7L19.8,33.7z"/>
			<path class="st1" d="M38.1,12.8c-6.7,0-12.2,4.6-12.7,10.5C19,23.6,13,28.2,13,34.5c0,2.6,1,5.1,2.9,7.1c0.4,1.5-0.1,3.2-1.2,4.3
				c-0.2,0.2-0.3,0.5-0.2,0.8c0.1,0.3,0.4,0.5,0.7,0.5c2.1,0,4.2-0.8,5.7-2.3c1.5,0.5,3.4,0.8,5.2,0.8c6.7,0,12.2-4.6,12.7-10.5
				c1.6-0.1,3.2-0.4,4.5-0.8c1.5,1.5,3.6,2.3,5.7,2.3c0.3,0,0.6-0.2,0.7-0.5c0.1-0.3,0.1-0.6-0.2-0.8c-1.1-1.1-1.6-2.7-1.2-4.3
				c1.9-2,2.9-4.5,2.9-7.1C51.3,17.6,44.8,12.8,38.1,12.8L38.1,12.8z M26.2,44.2c-2,0-4.3-0.4-5.6-1.1c-0.9,1.2-2.2,2-3.7,2.4
				c0.7-1.4,0.9-3.1,0.4-4.6c-1.8-1.8-2.7-4-2.7-6.4c0-5.3,5.3-9.7,11.6-9.7c6,0,11.2,4.1,11.2,9.7C37.4,39.8,32.4,44.2,26.2,44.2
				L26.2,44.2z M47.2,30.3c-0.1,0.1-0.1,0.2-0.2,0.3c-0.4,1.5-0.2,3.1,0.5,4.4c-1.4-0.4-2.8-1.2-3.7-2.4c-1.2,0.6-3.1,1-4.9,1.1
				c-0.2-2.8-1.6-5.5-4-7.4h9.7c0.4,0,0.7-0.3,0.7-0.7c0-0.4-0.3-0.7-0.7-0.7h-12C30.9,24,29,23.5,27,23.4c0.4-5,5.3-9,11.2-9
				c6.3,0,11.6,4.4,11.6,9.7C49.8,26.3,48.8,28.5,47.2,30.3L47.2,30.3z"/>
			<path class="st1" d="M32.2,32.2h-9.4c-0.4,0-0.7,0.3-0.7,0.7c0,0.4,0.3,0.7,0.7,0.7h9.4c0.4,0,0.7-0.3,0.7-0.7
				C32.9,32.6,32.6,32.2,32.2,32.2L32.2,32.2z"/>
			<path class="st1" d="M32.2,36.7H19.8c-0.4,0-0.7,0.3-0.7,0.7s0.3,0.7,0.7,0.7h12.4c0.4,0,0.7-0.3,0.7-0.7S32.6,36.7,32.2,36.7
				L32.2,36.7z"/>
			<path class="st1" d="M44.6,20.3h-9.4c-0.4,0-0.7,0.3-0.7,0.7c0,0.4,0.3,0.7,0.7,0.7h9.4c0.4,0,0.7-0.3,0.7-0.7S45,20.3,44.6,20.3
				L44.6,20.3z"/>
		</g>
		<g>
			<path class="st1" d="M70.9,25.7l-1.2,1.5c-0.9-1-2.1-1.5-3.4-1.5c-2.4,0-4.3,1.9-4.3,4.3s1.9,4.3,4.3,4.3c0.9,0,1.9-0.3,2.7-0.9
				c0.4-0.3,0.9-0.2,1.2,0.1l0.6,0.7c-1.2,1.2-3,2-4.7,2c-3.6,0-6.3-2.7-6.3-6.2s2.8-6.1,6.4-6.1C68,23.9,69.7,24.6,70.9,25.7z"/>
			<path class="st1" d="M84.9,36.1v-5h-6.4v5h-2V24h2v5.3h6.4V24h2v12.1H84.9z"/>
			<path class="st1" d="M94.4,35.5c-0.1,0.3-0.5,0.6-0.8,0.6h-1.5L97.5,24h2.1l5.3,12.1h-2.2l-1.2-2.7h-6.1L94.4,35.5z M98.4,26.1
				l-2.3,5.4h4.6L98.4,26.1z"/>
			<path class="st1" d="M113.1,25.8v10.3h-2V25.8h-3.8V24h9.7v1.8H113.1z"/>
		</g>
	</g>
</g>
</svg>
